<svg width="32" height="33" viewBox="0 0 32 33" fill="none" xmlns="http://www.w3.org/2000/svg">
<g clip-path="url(#clip0_15988_175796)">
<path d="M16 32.5C24.8366 32.5 32 25.3366 32 16.5C32 7.66344 24.8366 0.5 16 0.5C7.16344 0.5 0 7.66344 0 16.5C0 25.3366 7.16344 32.5 16 32.5Z" fill="#815DC4"/>
<path d="M24.805 9.83502H7.195C6.53502 9.83502 6 10.37 6 11.03V21.975C6 22.635 6.53502 23.17 7.195 23.17H24.805C25.465 23.17 26 22.635 26 21.975V11.03C26 10.37 25.465 9.83502 24.805 9.83502Z" fill="white" stroke="#07152D" stroke-linejoin="round"/>
<path d="M6 11.82H26" stroke="#07152D" stroke-linejoin="round"/>
<path d="M23.125 13.62H8.75999C8.33196 13.62 7.98499 13.967 7.98499 14.395V19.825C7.98499 20.253 8.33196 20.6 8.75999 20.6H23.125C23.553 20.6 23.9 20.253 23.9 19.825V14.395C23.9 13.967 23.553 13.62 23.125 13.62Z" fill="#815DC4"/>
<path d="M10.145 19.115L11.56 15.115H12.12L13.53 19.115H12.96L12.57 17.935H11.095L10.705 19.115H10.145ZM11.82 15.74L11.235 17.5H12.43L11.845 15.74H11.82Z" fill="white"/>
<path d="M16 15.115C17.17 15.115 17.765 15.81 17.765 17.115C17.765 18.42 17.17 19.115 16 19.115H14.7V15.115H16ZM15.24 18.615H15.95C16.785 18.615 17.19 18.115 17.19 17.115C17.19 16.115 16.78 15.615 15.95 15.615H15.225L15.24 18.615Z" fill="white"/>
<path d="M19.335 18.095C19.3941 18.2966 19.5234 18.4705 19.6994 18.5851C19.8755 18.6997 20.0868 18.7476 20.295 18.72C20.85 18.72 21.195 18.45 21.195 18.035C21.195 17.715 20.995 17.535 20.545 17.415L19.85 17.24C19.5919 17.2054 19.3546 17.0795 19.1812 16.885C19.0079 16.6906 18.9099 16.4405 18.905 16.18C18.905 15.5 19.5 15 20.3 15C20.6231 14.9625 20.9482 15.0513 21.2072 15.2479C21.4663 15.4446 21.6393 15.7337 21.69 16.055H21.15C21.0969 15.8759 20.9816 15.7216 20.8249 15.6198C20.6682 15.5181 20.4803 15.4756 20.295 15.5C19.795 15.5 19.45 15.765 19.45 16.155C19.45 16.435 19.65 16.63 20.015 16.72L20.695 16.9C21.395 17.08 21.74 17.4 21.74 17.99C21.74 18.72 21.165 19.195 20.24 19.195C19.395 19.195 18.85 18.74 18.795 18.095H19.335Z" fill="white"/>
</g>
<defs>
<clipPath id="clip0_15988_175796">
<rect width="32" height="32" fill="white" transform="translate(0 0.5)"/>
</clipPath>
</defs>
</svg>
