<svg width="32" height="33" viewBox="0 0 32 33" fill="none" xmlns="http://www.w3.org/2000/svg">
<g clip-path="url(#clip0_16749_428)">
<path d="M16 32.5C24.8366 32.5 32 25.3366 32 16.5C32 7.66344 24.8366 0.5 16 0.5C7.16344 0.5 0 7.66344 0 16.5C0 25.3366 7.16344 32.5 16 32.5Z" fill="#D9D9D9"/>
<path d="M24.805 9.83502H7.195C6.53502 9.83502 6 10.37 6 11.03V21.975C6 22.635 6.53502 23.17 7.195 23.17H24.805C25.465 23.17 26 22.635 26 21.975V11.03C26 10.37 25.465 9.83502 24.805 9.83502Z" fill="white" stroke="#07152D" stroke-linejoin="round"/>
<path d="M6 11.82H26" stroke="#07152D" stroke-linejoin="round"/>
<path d="M9.375 21C9.375 21.1326 9.32232 21.2598 9.22855 21.3536C9.13479 21.4473 9.00761 21.5 8.875 21.5C8.74239 21.5 8.61521 21.4473 8.52145 21.3536C8.42768 21.2598 8.375 21.1326 8.375 21V14C8.375 13.8674 8.42768 13.7402 8.52145 13.6464C8.61521 13.5527 8.74239 13.5 8.875 13.5C9.00761 13.5 9.13479 13.5527 9.22855 13.6464C9.32232 13.7402 9.375 13.8674 9.375 14V21Z" fill="#D9D9D9"/>
<path d="M12.225 21C12.225 21.1326 12.1723 21.2598 12.0786 21.3536C11.9848 21.4473 11.8576 21.5 11.725 21.5C11.5924 21.5 11.4652 21.4473 11.3715 21.3536C11.2777 21.2598 11.225 21.1326 11.225 21V15C11.225 14.8674 11.2777 14.7402 11.3715 14.6464C11.4652 14.5527 11.5924 14.5 11.725 14.5C11.8576 14.5 11.9848 14.5527 12.0786 14.6464C12.1723 14.7402 12.225 14.8674 12.225 15V21Z" fill="#D9D9D9"/>
<path d="M15.075 21C15.075 21.1326 15.0223 21.2598 14.9286 21.3536C14.8348 21.4473 14.7076 21.5 14.575 21.5C14.4424 21.5 14.3152 21.4473 14.2214 21.3536C14.1277 21.2598 14.075 21.1326 14.075 21V16C14.075 15.8674 14.1277 15.7402 14.2214 15.6464C14.3152 15.5527 14.4424 15.5 14.575 15.5C14.7076 15.5 14.8348 15.5527 14.9286 15.6464C15.0223 15.7402 15.075 15.8674 15.075 16V21Z" fill="#D9D9D9"/>
<path d="M17.925 21C17.925 21.1326 17.8723 21.2598 17.7786 21.3536C17.6848 21.4473 17.5576 21.5 17.425 21.5C17.2924 21.5 17.1652 21.4473 17.0715 21.3536C16.9777 21.2598 16.925 21.1326 16.925 21V16C16.925 15.8674 16.9777 15.7402 17.0715 15.6464C17.1652 15.5527 17.2924 15.5 17.425 15.5C17.5576 15.5 17.6848 15.5527 17.7786 15.6464C17.8723 15.7402 17.925 15.8674 17.925 16V21Z" fill="#D9D9D9"/>
<path d="M20.775 21C20.775 21.1326 20.7223 21.2598 20.6285 21.3536C20.5348 21.4473 20.4076 21.5 20.275 21.5C20.1424 21.5 20.0152 21.4473 19.9214 21.3536C19.8277 21.2598 19.775 21.1326 19.775 21V17C19.775 16.8674 19.8277 16.7402 19.9214 16.6464C20.0152 16.5527 20.1424 16.5 20.275 16.5C20.4076 16.5 20.5348 16.5527 20.6285 16.6464C20.7223 16.7402 20.775 16.8674 20.775 17V21Z" fill="#D9D9D9"/>
<path d="M23.625 21C23.625 21.1326 23.5723 21.2598 23.4786 21.3536C23.3848 21.4473 23.2576 21.5 23.125 21.5C22.9924 21.5 22.8652 21.4473 22.7714 21.3536C22.6777 21.2598 22.625 21.1326 22.625 21V20C22.625 19.8674 22.6777 19.7402 22.7714 19.6464C22.8652 19.5527 22.9924 19.5 23.125 19.5C23.2576 19.5 23.3848 19.5527 23.4786 19.6464C23.5723 19.7402 23.625 19.8674 23.625 20V21Z" fill="#D9D9D9"/>
<path d="M7.5 21.5H24.5" stroke="#07152D" stroke-linecap="round" stroke-linejoin="round"/>
</g>
<defs>
<clipPath id="clip0_16749_428">
<rect width="32" height="32" fill="white" transform="translate(0 0.5)"/>
</clipPath>
</defs>
</svg>
