<svg width="32" height="33" viewBox="0 0 32 33" fill="none" xmlns="http://www.w3.org/2000/svg">
<g clip-path="url(#clip0_16749_153)">
<path d="M16 32.5C24.8366 32.5 32 25.3366 32 16.5C32 7.66344 24.8366 0.5 16 0.5C7.16344 0.5 0 7.66344 0 16.5C0 25.3366 7.16344 32.5 16 32.5Z" fill="#269AC8"/>
<path d="M24.805 9.83502H7.195C6.53502 9.83502 6 10.37 6 11.03V21.975C6 22.635 6.53502 23.17 7.195 23.17H24.805C25.465 23.17 26 22.635 26 21.975V11.03C26 10.37 25.465 9.83502 24.805 9.83502Z" fill="white" stroke="#07152D" stroke-linejoin="round"/>
<path d="M6 11.82H26" stroke="#07152D" stroke-linejoin="round"/>
<path d="M14.915 21.35C15.6638 21.5605 16.4577 21.5482 17.1996 21.3145C17.9414 21.0808 18.5991 20.6359 19.092 20.0342C19.5849 19.4325 19.8917 18.7002 19.9748 17.9268C20.0579 17.1535 19.9138 16.3727 19.56 15.68" stroke="#07152D" stroke-linecap="round" stroke-linejoin="round"/>
<path d="M15.3501 20.52L14.7201 22.23L14.1801 21.06L15.3501 20.52Z" fill="#07152D"/>
<path d="M17.5601 13.82C16.7653 13.4849 15.8835 13.4158 15.0461 13.6228C14.2088 13.8298 13.4608 14.302 12.9138 14.9688C12.3667 15.6356 12.0498 16.4614 12.0104 17.3231C11.971 18.1847 12.2111 19.036 12.6951 19.75" stroke="#07152D" stroke-linecap="round" stroke-linejoin="round"/>
<path d="M17.025 14.585L17.865 12.97L18.255 14.195L17.025 14.585Z" fill="#07152D"/>
<path fill-rule="evenodd" clip-rule="evenodd" d="M17.0701 16.07C17.0701 16.2816 17.0073 16.4885 16.8897 16.6645C16.7722 16.8404 16.605 16.9776 16.4095 17.0586C16.214 17.1395 15.9989 17.1607 15.7913 17.1194C15.5837 17.0782 15.3931 16.9762 15.2435 16.8266C15.0938 16.677 14.9919 16.4863 14.9506 16.2787C14.9093 16.0712 14.9305 15.856 15.0115 15.6605C15.0925 15.465 15.2296 15.2979 15.4056 15.1803C15.5816 15.0628 15.7884 15 16.0001 15C16.2838 15 16.556 15.1127 16.7567 15.3134C16.9573 15.5141 17.0701 15.7862 17.0701 16.07Z" fill="#269AC8"/>
<path fill-rule="evenodd" clip-rule="evenodd" d="M17.4299 20H14.5699V18.93C14.5699 18.5507 14.7206 18.187 14.9888 17.9188C15.257 17.6507 15.6207 17.5 15.9999 17.5C16.3792 17.5 16.7429 17.6507 17.0111 17.9188C17.2793 18.187 17.4299 18.5507 17.4299 18.93V20Z" fill="#269AC8"/>
<path d="M9.25 15.25C9.80228 15.25 10.25 14.8023 10.25 14.25C10.25 13.6977 9.80228 13.25 9.25 13.25C8.69772 13.25 8.25 13.6977 8.25 14.25C8.25 14.8023 8.69772 15.25 9.25 15.25Z" fill="#269AC8"/>
<path d="M22.5 21.5C23.0523 21.5 23.5 21.0523 23.5 20.5C23.5 19.9477 23.0523 19.5 22.5 19.5C21.9477 19.5 21.5 19.9477 21.5 20.5C21.5 21.0523 21.9477 21.5 22.5 21.5Z" fill="#269AC8"/>
<path d="M9.5 21C9.77614 21 10 20.7761 10 20.5C10 20.2239 9.77614 20 9.5 20C9.22386 20 9 20.2239 9 20.5C9 20.7761 9.22386 21 9.5 21Z" fill="#269AC8"/>
<path d="M21.5 14C21.7761 14 22 13.7761 22 13.5C22 13.2239 21.7761 13 21.5 13C21.2239 13 21 13.2239 21 13.5C21 13.7761 21.2239 14 21.5 14Z" fill="#269AC8"/>
</g>
<defs>
<clipPath id="clip0_16749_153">
<rect width="32" height="32" fill="white" transform="translate(0 0.5)"/>
</clipPath>
</defs>
</svg>
