<svg width="32" height="33" viewBox="0 0 32 33" fill="none" xmlns="http://www.w3.org/2000/svg">
<g clip-path="url(#clip0_16749_227)">
<path d="M16 32.5C24.8366 32.5 32 25.3366 32 16.5C32 7.66344 24.8366 0.5 16 0.5C7.16344 0.5 0 7.66344 0 16.5C0 25.3366 7.16344 32.5 16 32.5Z" fill="#60AEC5"/>
<path d="M24.805 9.83502H7.195C6.53502 9.83502 6 10.37 6 11.03V21.975C6 22.635 6.53502 23.17 7.195 23.17H24.805C25.465 23.17 26 22.635 26 21.975V11.03C26 10.37 25.465 9.83502 24.805 9.83502Z" fill="white" stroke="#07152D" stroke-linejoin="round"/>
<path d="M6 11.82H26" stroke="#07152D" stroke-linejoin="round"/>
<path d="M15.75 12.875V21.875" stroke="#07152D" stroke-width="0.87" stroke-linecap="round" stroke-linejoin="round"/>
<path d="M11.25 17.375H20.25" stroke="#07152D" stroke-width="0.87" stroke-linecap="round" stroke-linejoin="round"/>
<path d="M15.75 20.75C17.5587 20.75 19.025 19.2837 19.025 17.475C19.025 15.6663 17.5587 14.2 15.75 14.2C13.9412 14.2 12.475 15.6663 12.475 17.475C12.475 19.2837 13.9412 20.75 15.75 20.75Z" fill="white" stroke="#07152D" stroke-width="0.82" stroke-linejoin="round"/>
<path d="M15.75 20.75C17.5587 20.75 19.025 19.2837 19.025 17.475C19.025 15.6663 17.5587 14.2 15.75 14.2C13.9412 14.2 12.475 15.6663 12.475 17.475C12.475 19.2837 13.9412 20.75 15.75 20.75Z" fill="white" stroke="#07152D" stroke-width="0.82" stroke-linejoin="round"/>
<path d="M15.75 19.93C17.1059 19.93 18.205 18.8309 18.205 17.475C18.205 16.1192 17.1059 15.02 15.75 15.02C14.3942 15.02 13.295 16.1192 13.295 17.475C13.295 18.8309 14.3942 19.93 15.75 19.93Z" fill="#60AEC5"/>
<path d="M14.25 17.475L15.25 18.475L17.25 16.475" stroke="#07152D" stroke-width="0.8" stroke-linecap="round" stroke-linejoin="round"/>
</g>
<defs>
<clipPath id="clip0_16749_227">
<rect width="32" height="32" fill="white" transform="translate(0 0.5)"/>
</clipPath>
</defs>
</svg>
