<svg width="32" height="33" viewBox="0 0 32 33" fill="none" xmlns="http://www.w3.org/2000/svg">
<g clip-path="url(#clip0_16749_86)">
<path d="M16 32.5C24.8366 32.5 32 25.3366 32 16.5C32 7.66344 24.8366 0.5 16 0.5C7.16344 0.5 0 7.66344 0 16.5C0 25.3366 7.16344 32.5 16 32.5Z" fill="#B35CA1"/>
<path d="M24.805 9.83502H7.195C6.53502 9.83502 6 10.37 6 11.03V21.975C6 22.635 6.53502 23.17 7.195 23.17H24.805C25.465 23.17 26 22.635 26 21.975V11.03C26 10.37 25.465 9.83502 24.805 9.83502Z" fill="white" stroke="#07152D" stroke-linejoin="round"/>
<path d="M6 11.82H26" stroke="#07152D" stroke-linejoin="round"/>
<path d="M18.7249 19.57L15.8199 18.115" stroke="#07152D" stroke-width="0.73" stroke-miterlimit="10"/>
<path d="M16.545 21.75L15.455 17.75" stroke="#07152D" stroke-width="0.73" stroke-miterlimit="10"/>
<path d="M12.91 19.57L15.82 17.75" stroke="#07152D" stroke-width="0.73" stroke-miterlimit="10"/>
<path d="M13.09 15.75L15.635 17.93" stroke="#07152D" stroke-width="0.73" stroke-miterlimit="10"/>
<path d="M18.7249 15.57L15.8199 18.115" stroke="#07152D" stroke-width="0.73" stroke-miterlimit="10"/>
<path d="M16 13.93L15.635 17.93" stroke="#07152D" stroke-width="0.73" stroke-miterlimit="10"/>
<path d="M15.6351 19.385C16.4386 19.385 17.0901 18.7335 17.0901 17.93C17.0901 17.1264 16.4386 16.475 15.6351 16.475C14.8315 16.475 14.1801 17.1264 14.1801 17.93C14.1801 18.7335 14.8315 19.385 15.6351 19.385Z" fill="#B35CA1" stroke="white" stroke-width="0.73" stroke-miterlimit="10"/>
<path d="M16 14.655C16.4004 14.655 16.725 14.3304 16.725 13.93C16.725 13.5296 16.4004 13.205 16 13.205C15.5996 13.205 15.275 13.5296 15.275 13.93C15.275 14.3304 15.5996 14.655 16 14.655Z" fill="#B35CA1"/>
<path d="M16.365 22.295C16.7654 22.295 17.09 21.9704 17.09 21.57C17.09 21.1696 16.7654 20.845 16.365 20.845C15.9646 20.845 15.64 21.1696 15.64 21.57C15.64 21.9704 15.9646 22.295 16.365 22.295Z" fill="#B35CA1"/>
<path d="M18.9101 16.11C19.3105 16.11 19.6351 15.7854 19.6351 15.385C19.6351 14.9846 19.3105 14.66 18.9101 14.66C18.5097 14.66 18.1851 14.9846 18.1851 15.385C18.1851 15.7854 18.5097 16.11 18.9101 16.11Z" fill="#B35CA1"/>
<path d="M18.9099 20.84C19.5119 20.84 19.9999 20.352 19.9999 19.75C19.9999 19.148 19.5119 18.66 18.9099 18.66C18.308 18.66 17.8199 19.148 17.8199 19.75C17.8199 20.352 18.308 20.84 18.9099 20.84Z" fill="#B35CA1"/>
<path d="M13.09 16.84C13.692 16.84 14.18 16.352 14.18 15.75C14.18 15.148 13.692 14.66 13.09 14.66C12.488 14.66 12 15.148 12 15.75C12 16.352 12.488 16.84 13.09 16.84Z" fill="#B35CA1"/>
<path d="M12.725 20.475C13.1254 20.475 13.45 20.1504 13.45 19.75C13.45 19.3496 13.1254 19.025 12.725 19.025C12.3246 19.025 12 19.3496 12 19.75C12 20.1504 12.3246 20.475 12.725 20.475Z" fill="#B35CA1"/>
</g>
<defs>
<clipPath id="clip0_16749_86">
<rect width="32" height="32" fill="white" transform="translate(0 0.5)"/>
</clipPath>
</defs>
</svg>
